<svg xmlns="http://www.w3.org/2000/svg" viewBox="0 0 900 1100" width="900" height="1100"><rect width="900" height="1100" fill="#4A5337"/><g transform="translate(-20 20) scale(0.9)">
    <path d="M230 300 L330 260 H470 L570 300 L660 480 L580 510 L560 460 V840 H240 V460 L220 510 L140 480 Z" fill="#FCEAB3"/>
    <path d="M330 260 L400 360 L470 260 L440 250 L400 300 L360 250 Z" fill="#28361F"/>
    <path d="M400 360 V840" stroke="#C1B88A" stroke-width="4"/>
    <g fill="#28361F"><circle cx="400" cy="440" r="8"/><circle cx="400" cy="540" r="8"/><circle cx="400" cy="640" r="8"/><circle cx="400" cy="740" r="8"/></g></g><g transform="translate(400 400) scale(0.65)">
    <rect x="335" y="120" width="130" height="760" fill="#C1B88A"/>
    <circle cx="400" cy="500" r="160" fill="#FCEAB3"/>
    <circle cx="400" cy="500" r="128" fill="#28361F"/>
    <rect x="555" y="480" width="34" height="40" fill="#FCEAB3"/>
    <path d="M400 500 V405 M400 500 L465 540" stroke="#FCEAB3" stroke-width="10" stroke-linecap="square"/>
    <g fill="#FCEAB3"><rect x="396" y="382" width="8" height="18"/><rect x="396" y="600" width="8" height="18"/><rect x="282" y="496" width="18" height="8"/><rect x="500" y="496" width="18" height="8"/></g></g></svg>
